<?xml version="1.0" ?><svg viewBox="0 0 64 64" xmlns="http://www.w3.org/2000/svg"><defs><style>.cls-1{fill:none;stroke:#000;stroke-linecap:round;stroke-linejoin:round;stroke-width:2px;}</style></defs><g id="nfc"><path class="cls-1" d="M29.6731,9.6588A24.3731,24.3731,0,0,0,24,9C14.0589,9,6,14.82,6,22s8.0589,13,18,13a24.3744,24.3744,0,0,0,5.655-.6545"/><circle cx="25.8333" cy="63.0346" r="1.0691"/><line class="cls-1" x1="21.9191" x2="24.7475" y1="52.1203" y2="54.9488"/><line class="cls-1" x1="24.7475" x2="21.9191" y1="52.1203" y2="54.9488"/><path class="cls-1" d="M55.9261,6H34.0738A4.0738,4.0738,0,0,0,30,10.0739V55.9261A4.0738,4.0738,0,0,0,34.0738,60H55.9261A4.0739,4.0739,0,0,0,60,55.9261V10.0738A4.0738,4.0738,0,0,0,55.9261,6Z"/><path class="cls-1" d="M39.4038,6H50.5961A.4039.4039,0,0,1,51,6.4039v0A2.5961,2.5961,0,0,1,48.4039,9H41.5961A2.5961,2.5961,0,0,1,39,6.4039v0A.4039.4039,0,0,1,39.4038,6Z"/><line class="cls-1" x1="40" x2="50" y1="57" y2="57"/><path class="cls-1" d="M12.821,25a3.4532,3.4532,0,0,0,.8667-2.25A3.6084,3.6084,0,0,0,12.3123,20"/><path class="cls-1" d="M16.0435,26.9425A7.5166,7.5166,0,0,0,16.0074,18"/><path class="cls-1" d="M19.9246,29A12.6305,12.6305,0,0,0,21.5,22.5,12.6305,12.6305,0,0,0,19.9246,16"/><path class="cls-1" d="M23.2616,31C24.61,29.173,25.5,26.05,25.5,22.5s-.89-6.673-2.2383-8.5"/><polyline class="cls-1" points="36 34 36 28 41 34 41 28"/><polyline class="cls-1" points="44 34 44 28 47.068 28"/><line class="cls-1" x1="47" x2="44" y1="31" y2="31"/><path class="cls-1" d="M53.9315,28H50.9009A.901.901,0,0,0,50,28.9009v4.1982A.901.901,0,0,0,50.9009,34H54"/></g></svg>